<?xml version="1.0" encoding="UTF-8"?>
<svg id="Colour" xmlns="http://www.w3.org/2000/svg" viewBox="0 0 595 240">
  <defs>
    <style>
      .cls-1 {
        fill: #008d7f;
      }

      .cls-1, .cls-2, .cls-3, .cls-4, .cls-5, .cls-6, .cls-7, .cls-8, .cls-9, .cls-10, .cls-11, .cls-12, .cls-13, .cls-14, .cls-15, .cls-16 {
        stroke-width: 0px;
      }

      .cls-2 {
        fill: #00685e;
      }

      .cls-3 {
        fill: #009a44;
      }

      .cls-4 {
        fill: #78be20;
      }

      .cls-5 {
        fill: #454545;
      }

      .cls-6 {
        fill: #c2e189;
      }

      .cls-7 {
        fill: #14a3c7;
      }

      .cls-8 {
        fill: #007864;
      }

      .cls-9 {
        fill: #279989;
      }

      .cls-10 {
        fill: #5cb8b2;
      }

      .cls-11 {
        fill: #a4d65e;
      }

      .cls-12 {
        fill: #009639;
      }

      .cls-13 {
        fill: #8dc8e8;
      }

      .cls-14 {
        fill: #84bd00;
      }

      .cls-15 {
        fill: #a0d1ca;
      }

      .cls-16 {
        fill: #41b6e6;
      }
    </style>
  </defs>
  <g>
    <rect class="cls-13" x="49.87" y="96.45" width="13.14" height="37.6"/>
    <rect class="cls-16" x="49.87" y="134.04" width="13.14" height="29.86"/>
    <rect class="cls-16" x="63.01" y="68.39" width="13.35" height="41.65"/>
    <rect class="cls-7" x="63.01" y="110.03" width="13.35" height="47.75"/>
    <rect class="cls-10" x="76.36" y="75.33" width="13.21" height="44.92"/>
    <rect class="cls-9" x="76.36" y="120.25" width="13.21" height="52.59"/>
    <rect class="cls-15" x="89.57" y="48.28" width="20.15" height="47.88"/>
    <rect class="cls-1" x="89.57" y="96.16" width="20.15" height="87.6"/>
    <rect class="cls-12" x="109.72" y="71.92" width="13.24" height="62.12"/>
    <rect class="cls-2" x="109.72" y="134.04" width="13.24" height="58.01"/>
    <rect class="cls-14" x="122.96" y="60" width="20.13" height="54.76"/>
    <rect class="cls-8" x="122.96" y="114.77" width="20.13" height="59.33"/>
    <rect class="cls-11" x="143.09" y="96.43" width="13.25" height="29.73"/>
    <rect class="cls-3" x="143.09" y="126.15" width="13.25" height="31.62"/>
    <rect class="cls-6" x="156.34" y="87.63" width="13.24" height="27.14"/>
    <rect class="cls-4" x="156.34" y="114.77" width="13.24" height="31.52"/>
  </g>
  <g>
    <path class="cls-5" d="m210.32,187.07h-6.28c-.13,0-.21.03-.26.18-.18.6-1.06,3.87-1.22,4.52-.08.21-.18.26-.34.26h-1.43c-.16,0-.23-.1-.18-.26.83-3.11,3.87-13.65,4.98-17.13.05-.16.16-.26.31-.26h2.83c.18,0,.26.1.31.26,1.14,3.87,4.15,14.84,4.72,17.13.05.16-.03.26-.18.26h-1.58c-.16,0-.26-.03-.31-.26-.16-.65-.99-3.92-1.17-4.52-.03-.13-.08-.18-.21-.18Zm-.42-1.51c.16,0,.21-.05.21-.21-.39-1.58-1.69-6.64-2.39-9.19-.05-.16-.1-.18-.47-.18-.34,0-.39.03-.44.18-.75,2.52-2.13,7.55-2.54,9.19,0,.16.05.21.21.21h5.42Z"/>
    <path class="cls-5" d="m222.7,174.64c0-.16.1-.26.26-.26h7.86c.16,0,.26.1.26.26v1.09c0,.16-.1.26-.26.26h-6.07c-.1,0-.16.05-.16.16v5.84c0,.1.05.16.16.16h5.74c.16,0,.26.1.26.26v.99c0,.16-.1.26-.26.26h-5.74c-.1,0-.16.05-.16.16v6.46c0,.1.05.16.16.16h6.54c.16,0,.26.1.26.26v1.09c0,.16-.1.26-.26.26h-8.33c-.16,0-.26-.1-.26-.26v-17.13Z"/>
    <path class="cls-5" d="m246.79,188.08c0,2.6-2.02,4.2-5.76,4.2s-5.58-1.61-5.58-4.2v-13.44c0-.16.1-.26.26-.26h1.38c.16,0,.26.1.26.26v13.11c0,2.39,1.58,2.91,3.69,2.91s3.87-.52,3.87-2.93v-13.08c0-.16.1-.26.26-.26h1.38c.16,0,.26.1.26.26v13.44Z"/>
    <path class="cls-5" d="m257.01,184.91c-.05-.08-.16-.13-.26-.16h-2.78c-.1,0-.16.05-.16.16v6.85c0,.16-.1.26-.26.26h-1.38c-.16,0-.26-.1-.26-.26v-17.13c0-.16.1-.26.26-.26h4.39c3.74,0,5.29,1.61,5.29,4.9,0,2.49-.93,4-2.98,4.9-.05.03-.16.16-.1.23l4.46,7.32c.1.16.03.29-.13.29h-1.79c-.16,0-.21-.08-.31-.23l-4-6.88Zm2.91-5.45c0-2.73-.96-3.61-3.84-3.61h-2.1c-.1,0-.16.05-.16.16v7.14c0,.1.05.16.16.16h2.13c2.65,0,3.81-1.48,3.81-3.84Z"/>
    <path class="cls-5" d="m277.18,190.73c-1.04,1.3-2.39,1.56-4.75,1.56s-3.66-.26-4.7-1.56c-1.06-1.35-1.61-4.23-1.61-7.53s.54-6.1,1.61-7.45c1.04-1.3,2.39-1.63,4.75-1.63s3.69.34,4.72,1.63c1.06,1.35,1.56,4.15,1.56,7.45s-.52,6.18-1.58,7.53Zm-7.89-.86c.6.7,1.27.83,3.14.83s2.62-.13,3.22-.83c.8-.93,1.19-3.71,1.19-6.64s-.39-5.73-1.19-6.67c-.6-.7-1.3-.83-3.17-.83s-2.6.13-3.19.83c-.8.93-1.22,3.71-1.22,6.67s.42,5.71,1.22,6.64Z"/>
    <path class="cls-5" d="m292.28,192.02c-.23,0-.29-.13-.39-.39l-6.02-14.92c-.1-.26-.16-.36-.34-.36-.16,0-.18.05-.18.34v15.08c0,.16-.1.26-.26.26h-1.32c-.16,0-.26-.1-.26-.26v-17.13c0-.16.1-.26.26-.26h2.75c.18,0,.29.08.36.31l5.92,14.74c.16.34.21.36.34.36s.16-.05.16-.21v-14.95c0-.16.1-.26.26-.26h1.35c.16,0,.26.1.26.26v17.13c0,.16-.1.26-.26.26h-2.62Z"/>
    <path class="cls-5" d="m300.48,174.64c0-.16.1-.26.26-.26h7.86c.16,0,.26.1.26.26v1.09c0,.16-.1.26-.26.26h-6.07c-.1,0-.16.05-.16.16v5.84c0,.1.05.16.16.16h5.74c.16,0,.26.1.26.26v.99c0,.16-.1.26-.26.26h-5.74c-.1,0-.16.05-.16.16v6.46c0,.1.05.16.16.16h6.54c.16,0,.26.1.26.26v1.09c0,.16-.1.26-.26.26h-8.33c-.16,0-.26-.1-.26-.26v-17.13Z"/>
    <path class="cls-5" d="m317.12,184.32c-.91,1.82-3.11,6.23-3.66,7.47-.08.16-.16.23-.29.23h-1.48c-.13,0-.26-.1-.18-.29.47-1.06,3.22-6.41,4.28-8.36.18-.34.21-.47.21-.62s-.03-.29-.23-.62c-1.25-2.13-3.66-6.7-4.05-7.53-.05-.16.03-.23.18-.23h1.61c.13,0,.23.13.29.26.6,1.38,2.59,5.27,3.37,6.75.08.13.13.18.26.18s.18-.05.26-.18c.75-1.43,2.72-5.37,3.32-6.75.05-.1.13-.26.29-.26h1.53c.16,0,.23.1.18.26-.75,1.51-2.93,5.61-4,7.5-.23.42-.26.49-.26.65s.08.34.23.6c1.04,1.89,3.89,7.29,4.36,8.36.08.18-.05.29-.18.29h-1.48c-.18,0-.29-.08-.36-.23-.6-1.35-2.72-5.66-3.69-7.47-.05-.1-.13-.16-.29-.16-.08,0-.18.05-.23.16Z"/>
    <path class="cls-5" d="m328.88,176.14c0-.1-.05-.16-.16-.16h-3.69c-.16,0-.26-.1-.26-.26v-1.09c0-.16.1-.26.26-.26h9.58c.16,0,.26.1.26.26v1.09c0,.16-.1.26-.26.26h-3.69c-.1,0-.16.05-.16.16v15.62c0,.16-.1.26-.26.26h-1.38c-.16,0-.26-.1-.26-.26v-15.62Z"/>
    <path class="cls-5" d="m349.27,192.28c-4.7,0-6.31-3.19-6.31-8.95s1.66-9.21,6.36-9.21c1.51,0,2.6.21,3.24.44.1.05.13.08.13.23l-.1,1.25c0,.08-.08.18-.21.13-.62-.23-1.76-.44-2.83-.44-3.79,0-4.65,2.52-4.65,7.63s.8,7.34,4.65,7.34c.91,0,2.15-.18,2.8-.36.13-.03.26-.05.28.1l.1,1.12c.03.16-.03.26-.1.29-.83.26-2.1.44-3.37.44Z"/>
    <path class="cls-5" d="m366.61,190.73c-1.04,1.3-2.39,1.56-4.75,1.56s-3.66-.26-4.7-1.56c-1.06-1.35-1.61-4.23-1.61-7.53s.54-6.1,1.61-7.45c1.04-1.3,2.39-1.63,4.75-1.63s3.69.34,4.72,1.63c1.06,1.35,1.56,4.15,1.56,7.45s-.52,6.18-1.58,7.53Zm-7.89-.86c.6.7,1.27.83,3.14.83s2.62-.13,3.22-.83c.8-.93,1.19-3.71,1.19-6.64s-.39-5.73-1.19-6.67c-.6-.7-1.3-.83-3.17-.83s-2.6.13-3.19.83c-.8.93-1.22,3.71-1.22,6.67s.42,5.71,1.22,6.64Z"/>
    <path class="cls-5" d="m384.08,174.64c.05-.16.21-.26.36-.26h2.75c.16,0,.26.1.26.26v17.13c0,.16-.1.26-.26.26h-1.38c-.16,0-.26-.1-.26-.26v-15.49c0-.23,0-.26-.1-.26-.13,0-.16.05-.26.31l-3.89,11.26c-.1.31-.18.36-.47.36h-1.35c-.28,0-.36-.03-.47-.34l-3.84-11.34c-.08-.23-.1-.26-.23-.26-.1,0-.13.05-.13.31v15.44c0,.16-.1.26-.26.26h-1.35c-.16,0-.26-.1-.26-.26v-17.13c0-.16.1-.26.26-.26h2.83c.18,0,.29.1.34.26l3.69,11.19c.08.21.1.23.18.23s.1-.03.18-.26l3.66-11.16Z"/>
    <path class="cls-5" d="m397.49,174.38c3.37,0,5.22,1.38,5.22,5.09,0,4.1-2.18,5.4-5.66,5.4h-2.18c-.1,0-.16.05-.16.16v6.75c0,.16-.1.26-.26.26h-1.38c-.16,0-.26-.1-.26-.26v-17.13c0-.16.1-.26.26-.26h4.41Zm-.49,8.98c2.52,0,3.76-.8,3.76-3.84,0-2.86-1.17-3.66-3.76-3.66h-2.13c-.1,0-.16.05-.16.16v7.19c0,.1.05.16.16.16h2.13Z"/>
    <path class="cls-5" d="m413.69,187.07h-6.28c-.13,0-.21.03-.26.18-.18.6-1.06,3.87-1.22,4.52-.08.21-.18.26-.34.26h-1.43c-.16,0-.23-.1-.18-.26.83-3.11,3.87-13.65,4.98-17.13.05-.16.16-.26.31-.26h2.83c.18,0,.26.1.31.26,1.14,3.87,4.15,14.84,4.72,17.13.05.16-.03.26-.18.26h-1.58c-.16,0-.26-.03-.31-.26-.16-.65-.99-3.92-1.17-4.52-.03-.13-.08-.18-.21-.18Zm-.42-1.51c.16,0,.21-.05.21-.21-.39-1.58-1.69-6.64-2.39-9.19-.05-.16-.1-.18-.47-.18-.34,0-.39.03-.44.18-.75,2.52-2.13,7.55-2.54,9.19,0,.16.05.21.21.21h5.42Z"/>
    <path class="cls-5" d="m429.18,192.02c-.23,0-.29-.13-.39-.39l-6.02-14.92c-.1-.26-.16-.36-.34-.36-.16,0-.18.05-.18.34v15.08c0,.16-.1.26-.26.26h-1.32c-.16,0-.26-.1-.26-.26v-17.13c0-.16.1-.26.26-.26h2.75c.18,0,.29.08.36.31l5.92,14.74c.16.34.21.36.34.36s.16-.05.16-.21v-14.95c0-.16.1-.26.26-.26h1.35c.16,0,.26.1.26.26v17.13c0,.16-.1.26-.26.26h-2.62Z"/>
    <path class="cls-5" d="m446,174.38h1.4c.16,0,.18.1.13.26-1.06,2.31-3.24,6.51-4.44,8.59-.73,1.27-.93,1.58-.93,1.97v6.57c0,.16-.1.26-.26.26h-1.38c-.16,0-.26-.1-.26-.26v-6.59c0-.39-.18-.7-.83-1.87-1.17-2.08-3.87-7.37-4.36-8.67-.05-.16.03-.26.18-.26h1.48c.18,0,.29.08.36.28.8,1.87,2.91,6.36,3.79,8.02.21.36.23.41.42.41s.18-.05.42-.41c.99-1.69,3.04-6.05,3.89-8.02.1-.21.21-.28.39-.28Z"/>
  </g>
  <g>
    <g>
      <path class="cls-1" d="m278.37,140.82c-2.95,3.51-7.24,4.43-14.06,4.43s-10.89-.91-13.92-4.43c-3.02-3.66-4.71-11.25-4.71-20.17s1.69-16.52,4.71-20.17c3.02-3.51,7.31-4.43,14.13-4.43s10.9.91,13.85,4.43c3.09,3.66,4.78,11.25,4.78,20.17s-1.69,16.52-4.78,20.17Zm-20.67-5.06c1.13,1.55,3.09,1.76,6.68,1.76s5.62-.21,6.75-1.76c1.55-2.18,2.25-8.43,2.25-15.11s-.7-12.93-2.25-15.11c-1.12-1.55-3.02-1.76-6.61-1.76s-5.69.21-6.82,1.76c-1.55,2.18-2.25,8.36-2.25,15.11s.7,12.93,2.25,15.11Z"/>
      <path class="cls-1" d="m352.67,96.75c14.27,0,17.22,12.44,17.22,23.9s-2.95,23.9-17.22,23.9h-18.42v-47.8h18.42Zm-1.27,7.17h-7.8v32.97c0,.35.07.42.35.42h7.52c7.17,0,8.79-7.17,8.79-17.01s-1.62-16.38-8.86-16.38Z"/>
      <path class="cls-1" d="m407.78,96.75c9.63,0,15.88,3.58,15.88,14.76,0,13.35-7.17,15.96-16.66,15.96h-3.3c-.84,0-.98.14-.98.49v16.59h-9.35v-47.8h14.41Zm-1.2,23.69c5.62,0,7.94-1.55,7.94-8.72,0-6.47-2.32-8.22-7.8-8.22h-3.51c-.42,0-.49.21-.49.49v15.96c0,.35.07.49.49.49h3.37Z"/>
      <path class="cls-1" d="m463.24,140.82c-2.95,3.51-7.24,4.43-14.06,4.43s-10.89-.91-13.92-4.43c-3.02-3.66-4.71-11.25-4.71-20.17s1.69-16.52,4.71-20.17c3.02-3.51,7.31-4.43,14.13-4.43s10.9.91,13.85,4.43c3.09,3.66,4.78,11.25,4.78,20.17s-1.69,16.52-4.78,20.17Zm-20.67-5.06c1.13,1.55,3.09,1.76,6.68,1.76s5.62-.21,6.75-1.76c1.55-2.18,2.25-8.43,2.25-15.11s-.7-12.93-2.25-15.11c-1.12-1.55-3.02-1.76-6.61-1.76s-5.69.21-6.82,1.76c-1.55,2.18-2.25,8.36-2.25,15.11s.7,12.93,2.25,15.11Z"/>
      <path class="cls-1" d="m508.72,140.82c-2.95,3.51-7.24,4.43-14.06,4.43s-10.89-.91-13.92-4.43c-3.02-3.66-4.71-11.25-4.71-20.17s1.69-16.52,4.71-20.17c3.02-3.51,7.31-4.43,14.13-4.43s10.9.91,13.85,4.43c3.09,3.66,4.78,11.25,4.78,20.17s-1.69,16.52-4.78,20.17Zm-20.67-5.06c1.13,1.55,3.09,1.76,6.68,1.76s5.62-.21,6.75-1.76c1.55-2.18,2.25-8.43,2.25-15.11s-.7-12.93-2.25-15.11c-1.12-1.55-3.02-1.76-6.61-1.76s-5.69.21-6.82,1.76c-1.55,2.18-2.25,8.36-2.25,15.11s.7,12.93,2.25,15.11Z"/>
      <path class="cls-1" d="m522.99,144.55v-47.8h9.35v39.99h12.79v7.8h-22.14Z"/>
    </g>
    <path class="cls-1" d="m236.13,96.75v47.8h-11.95c-.56,0-.77-.28-.99-.85l-12.72-34.44c-.28-.98-.56-1.4-.98-1.4s-.5.14-.5,1.33l.57,34.65c0,.43-.28.71-.71.71h-8.01v-47.8h12.72c.49,0,.7.35.92.85l11.94,33.25c.36,1.05.5,1.12.85,1.12s.49-.14.49-.7l-.49-34.51,4.43-4.42,4.42,4.42Z"/>
    <path class="cls-1" d="m308.6,127.79c-.56-1.05-.7-1.27-1.13-1.34h-4.92c-.35,0-.56.14-.56.49v16.87c0,.42-.28.7-.7.7h-7.94c-.42,0-.7-.28-.7-.7v-46.39c0-.42.28-.7.7-.7h14.27c10.68,0,16.1,3.58,16.1,13.21,0,6.33-1.34,10.12-6.19,12.93-.49.42-.7.7-.7.98,0,.7.35,1.48,1.12,2.74l9.35,17.22c.21.35.21.7-.35.7h-9.35c-.42,0-.63-.14-.84-.63l-8.15-16.1Zm5.34-16.31c0-6.33-1.69-7.94-8.01-7.94h-3.02c-.77,0-.91.14-.91.42v15.6c0,.35.14.49.49.56h3.44c6.04,0,8.01-2.39,8.01-8.65Z"/>
  </g>
</svg>
